#!OML:ASF F:\VICON\USERDATA\INSTALL\rory3\rory3.ASF
:FULLY-SPECIFIED
:DEGREES
372
root 3.82997 19.1127 26.274 100.353 -45.6819 -88.6231
lowerback 11.027 1.70612 13.7178
upperback -7.18743 5.1167 6.42596
thorax -13.8555 1.33067 -1.51299
lowerneck -7.91919 -14.0201 -12.3772
upperneck 20.4226 -22.9227 18.0509
head 11.6165 -10.3963 5.0297
rclavicle -5.26779e-014 -3.81667e-014
rhumerus -13.3813 -36.7854 -23.2956
rradius 14.4049
rwrist 11.138
rhand -20.5947 14.2531
rfingers 7.12502
rthumb 5.76566 -15.6484
lclavicle -5.26779e-014 -3.81667e-014
lhumerus -5.14421 6.78007 16.8524
lradius 23.293
lwrist -19.432
lhand -8.65262 24.702
lfingers 7.12502
lthumb 17.2808 53.9537
rfemur 183.642 0.657022 -231.972
rtibia 29.5026
rfoot -144.071 -114.852
rtoes 34.2615
lfemur -11.0075 -38.1433 30.7173
ltibia 20.0184
lfoot -93.8734 -32.4459
ltoes 55.33
373
root 3.81633 19.091 26.223 100.54 -47.7179 -88.707
lowerback 10.652 1.63615 12.0947
upperback -6.99149 4.63916 5.85244
thorax -13.4585 1.27848 -1.18945
lowerneck -6.57367 -14.5876 -12.8695
upperneck 19.9811 -24.051 18.9187
head 11.6037 -11.0111 5.26161
rclavicle -1.45113e-014 1.59028e-014
rhumerus -13.9429 -33.5157 -25.8434
rradius 14.5993
rwrist 6.66477
rhand -19.2874 14.7265
rfingers 7.12502
rthumb 7.02769 -15.1368
lclavicle -1.45113e-014 1.59028e-014
lhumerus -6.63015 5.74963 18.9142
lradius 23.9823
lwrist -16.2473
lhand -8.15192 24.5666
lfingers 7.12502
lthumb 17.7627 53.7753
rfemur 184.032 2.96821 -231.512
rtibia 29.0776
rfoot -143.808 -111.701
rtoes 34.5517
lfemur -11.715 -38.7152 28.7428
ltibia 20.7576
lfoot -94.0666 -32.3977
ltoes 55.2138
374
root 3.7994 19.0626 26.1645 100.727 -50.6911 -88.8561
lowerback 10.2953 1.45178 9.39485
upperback -6.77888 3.85464 5.15499
thorax -13.1131 1.16748 -0.342904
lowerneck -5.46713 -14.9402 -13.1173
upperneck 19.7987 -24.846 19.4655
head 11.6004 -11.4602 5.4029
rclavicle -1.78906e-015 -2.54444e-014
rhumerus -14.2591 -27.6641 -29.1309
rradius 15.3692
rwrist 0.0699981
rhand -19.1109 14.9688
rfingers 7.12502
rthumb 7.19806 -14.8888
lclavicle -1.78906e-015 -2.54444e-014
lhumerus -8.51588 5.2165 20.9532
lradius 24.7617
lwrist -13.5488
lhand -7.54504 24.2061
lfingers 7.12502
lthumb 18.3466 53.3609
rfemur 144.333 -173.259 -231.564
rtibia 28.1733
rfoot -77.0533 -62.3075
rtoes 35.8517
lfemur -12.6045 -39.8458 25.7685
ltibia 21.7302
lfoot -94.9505 -32.5151
ltoes 55.0962
375
root 3.79169 19.0301 26.0973 101.395 -53.115 -89.2793
lowerback 9.88557 1.38012 7.19971
upperback -6.69558 3.32831 4.57088
thorax -12.8373 1.1136 0.327411
lowerneck -4.49383 -15.2312 -13.264
upperneck 19.8427 -25.5565 19.8267
head 11.6546 -11.8612 5.47658
rclavicle -1.64991e-014 -3.49861e-014
rhumerus -15.0265 -22.5483 -32.2469
rradius 16.467
rwrist -5.40835
rhand -19.4428 14.6293
rfingers 7.12502
rthumb 6.87774 -15.239
lclavicle -1.64991e-014 -3.49861e-014
lhumerus -10.3701 4.73402 23.1711
lradius 25.6853
lwrist -11.0636
lhand -6.69868 24.0368
lfingers 7.12502
lthumb 19.1606 53.113
rfemur 144.292 -169.356 -230.936
rtibia 27.3254
rfoot -68.5634 -64.5015
rtoes 37.0031
lfemur -13.5995 -40.2686 23.5334
ltibia 22.656
lfoot -95.3192 -32.8485
ltoes 55.1016
376
root 3.78813 19.0046 26.0519 101.426 -54.2411 -89.4859
lowerback 10.1263 1.31895 6.61858
upperback -6.49486 3.15665 4.31526
thorax -12.7638 1.08261 0.390971
lowerneck -3.5858 -15.6 -13.4824
upperneck 19.6903 -26.2679 20.1037
head 11.6471 -12.2682 5.52193
rclavicle -1.19271e-014 9.54166e-015
rhumerus -16.0234 -18.4939 -34.9698
rradius 17.7879
rwrist -9.90499
rhand -19.1213 13.6642
rfingers 7.12502
rthumb 7.18804 -16.1937
lclavicle -1.19271e-014 9.54166e-015
lhumerus -12.1133 4.20682 25.6848
lradius 26.7824
lwrist -8.75434
lhand -5.46352 23.9205
lfingers 7.12502
lthumb 20.348 52.8745
rfemur 144.029 -167.023 -229.011
rtibia 26.8721
rfoot -59.604 -65.5582
rtoes 37.0889
lfemur -13.915 -39.9002 22.3161
ltibia 23.2985
lfoot -94.7317 -32.3521
ltoes 55.1855
377
root 3.78915 18.9956 26.0068 101.395 -54.0074 -89.2904
lowerback 10.1571 1.1897 7.37807
upperback -6.37474 3.09632 4.41648
thorax -12.6231 0.995015 0.0922775
lowerneck -2.80505 -15.9173 -13.5809
upperneck 19.6875 -26.8802 20.1866
head 11.6516 -12.6194 5.49672
rclavicle -3.73715e-014 1.90833e-014
rhumerus -16.9385 -15.0071 -37.8016
rradius 19.1478
rwrist -13.8234
rhand -18.5465 12.7893
rfingers 7.12502
rthumb 7.74287 -17.049
lclavicle -3.73715e-014 1.90833e-014
lhumerus -13.8926 3.55449 28.1326
lradius 27.9649
lwrist -6.18569
lhand -4.26392 24.2092
lfingers 7.12502
lthumb 21.5005 53.0359
rfemur 143.453 -166.937 -226.229
rtibia 26.68
rfoot -55.8056 -65.476
rtoes 36.8708
lfemur -14.4866 -37.808 22.8679
ltibia 23.7808
lfoot -92.7719 -31.3562
ltoes 55.1615
378
root 3.79755 18.9933 25.9642 101.552 -52.7181 -89.138
lowerback 10.2485 1.01436 9.1886
upperback -6.33879 3.15739 4.77551
thorax -12.5955 0.87397 -0.520514
lowerneck -2.14881 -16.0704 -13.6611
upperneck 19.7652 -27.2782 20.3041
head 11.6727 -12.8604 5.52109
rclavicle 8.94531e-015 7.63333e-014
rhumerus -17.7558 -11.9722 -40.8647
rradius 20.5997
rwrist -17.1998
rhand -18.1825 11.6469
rfingers 7.12502
rthumb 8.09416 -18.1781
lclavicle 8.94531e-015 7.63333e-014
lhumerus -15.9226 2.97668 30.511
lradius 29.2114
lwrist -3.53225
lhand -2.93983 24.5208
lfingers 7.12502
lthumb 22.7717 53.1968
rfemur 142.552 -168.692 -222.834
rtibia 26.4829
rfoot -56.4871 -65.7983
rtoes 37.4034
lfemur -15.0354 -34.4885 24.5715
ltibia 24.2356
lfoot -89.7672 -30.3549
ltoes 55.2877
379
root 3.79971 18.9709 25.9111 102.438 -53.1442 -89.5523
lowerback 9.89869 1.01002 9.07757
upperback -6.28784 3.08244 4.83233
thorax -12.3328 0.860439 -0.376877
lowerneck -1.68291 -16.1867 -13.9286
upperneck 19.6874 -27.5414 20.4863
head 11.685 -13.0293 5.60303
rclavicle 7.7526e-015 -7.63333e-014
rhumerus -18.4761 -8.56334 -43.74
rradius 22.3255
rwrist -21.0411
rhand -17.5437 10.4241
rfingers 7.12502
rthumb 8.71067 -19.3762
lclavicle 7.7526e-015 -7.63333e-014
lhumerus -17.7732 3.09742 33.2658
lradius 30.1504
lwrist -1.56638
lhand -1.23509 24.8252
lfingers 7.12502
lthumb 24.4069 53.2907
rfemur 141.324 -167.62 -220.514
rtibia 26.651
rfoot -51.1398 -66.2875
rtoes 39.089
lfemur -15.6193 -33.3263 24.4258
ltibia 24.5309
lfoot -89.1596 -29.9919
ltoes 55.2602
380
root 3.7931 18.9309 25.8546 103.805 -55.3462 -90.3864
lowerback 9.29786 1.10977 7.25692
upperback -6.26232 2.85362 4.39924
thorax -11.978 0.908336 0.200741
lowerneck -1.41465 -16.3146 -14.1023
upperneck 19.5337 -27.7596 20.6298
head 11.6756 -13.1556 5.64945
rclavicle 1.66979e-014 -4.13472e-014
rhumerus -19.4503 -5.15237 -46.3783
rradius 24.2806
rwrist -25.0452
rhand -16.0354 9.53904
rfingers 7.12502
rthumb 10.166 -20.1953
lclavicle 1.66979e-014 -4.13472e-014
lhumerus -19.2581 3.12124 36.1831
lradius 30.8742
lwrist 0.292094
lhand 0.182074 25.0277
lfingers 7.12502
lthumb 25.7648 53.3033
rfemur 140.116 -163.392 -219.005
rtibia 26.76
rfoot -39.9457 -66.0085
rtoes 40.8435
lfemur -16.3793 -34.0076 22.3912
ltibia 24.8504
lfoot -90.5647 -29.6338
ltoes 54.9591
381
root 3.79552 18.9261 25.8248 104.706 -56.6272 -90.9049
lowerback 9.00282 1.13171 6.60372
upperback -6.25823 2.73449 4.01705
thorax -11.7955 0.899023 0.169794
lowerneck -1.14152 -16.381 -14.0082
upperneck 19.3794 -27.9591 20.8805
head 11.6409 -13.2608 5.70517
rclavicle 1.37161e-014 -6.99722e-014
rhumerus -20.6761 -2.61349 -49.192
rradius 26.0641
rwrist -28.079
rhand -15.0128 8.61684
rfingers 7.12502
rthumb 11.1524 -21.0668
lclavicle 1.37161e-014 -6.99722e-014
lhumerus -20.4348 2.79838 38.8811
lradius 31.3681
lwrist 1.98739
lhand 0.871904 25.2798
lfingers 7.12502
lthumb 26.4252 53.4579
rfemur 203.971 -54.2644 -252.486
rtibia 26.9528
rfoot 37.1317 -31.0237
rtoes 60.8617
lfemur -17.0326 -33.6691 21.2019
ltibia 25.1881
lfoot -90.7808 -29.0781
ltoes 54.7983
382
root 3.78363 18.8981 25.7539 105.158 -57.1019 -91.212
lowerback 8.94546 1.12314 6.7024
upperback -6.18903 2.71474 3.85719
thorax -11.6689 0.880424 -0.0563921
lowerneck -1.21838 -16.4309 -14.0102
upperneck 19.6074 -28.2958 21.3
head 11.9039 -13.387 5.76867
rclavicle 1.55052e-014 -7.95139e-014
rhumerus -21.8228 -1.1133 -51.894
rradius 27.5774
rwrist -29.5826
rhand -14.4786 7.47722
rfingers 7.12502
rthumb 11.6676 -22.1779
lclavicle 1.55052e-014 -7.95139e-014
lhumerus -21.4587 2.69818 41.5429
lradius 31.6145
lwrist 2.96847
lhand 1.48201 25.5205
lfingers 7.12502
lthumb 27.0091 53.6095
rfemur 202.973 -52.0545 -249.079
rtibia 27.1515
rfoot 41.0711 -29.2275
rtoes 60.8948
lfemur -17.2849 -32.3709 20.7956
ltibia 25.5755
lfoot -89.6254 -29.0983
ltoes 54.7878
383
root 3.77136 18.87 25.6834 105.784 -57.9713 -91.6462
lowerback 8.81834 1.14693 6.31779
upperback -6.14571 2.6671 3.66937
thorax -11.5452 0.887553 -0.0381869
lowerneck -0.929527 -16.5386 -14.2301
upperneck 19.4479 -28.4372 21.3538
head 11.8631 -13.4872 5.80826
rclavicle -1.63003e-014 3.18055e-014
rhumerus -22.9338 -0.0380015 -54.3224
rradius 29.0559
rwrist -30.3683
rhand -13.1112 6.6181
rfingers 7.12502
rthumb 12.986 -22.9577
lclavicle -1.63003e-014 3.18055e-014
lhumerus -22.426 2.27298 44.4103
lradius 31.7239
lwrist 4.00988
lhand 2.18837 25.5961
lfingers 7.12502
lthumb 27.6847 53.5785
rfemur 200.738 -48.3689 -244.601
rtibia 27.6549
rfoot 46.2824 -26.3609
rtoes 60.9176
lfemur -17.5925 -31.8382 20.0331
ltibia 25.9037
lfoot -89.0563 -29.097
ltoes 54.7444
384
root 3.75778 18.836 25.608 106.693 -58.8033 -92.1388
lowerback 8.40347 1.19951 5.8474
upperback -6.14662 2.62864 3.57954
thorax -11.3051 0.910261 0.139604
lowerneck -0.818368 -16.5663 -14.3444
upperneck 19.269 -28.4704 21.4809
head 11.8233 -13.5137 5.86865
rclavicle -1.59028e-015 -8.5875e-014
rhumerus -23.9666 1.2303 -56.6477
rradius 30.6334
rwrist -31.1654
rhand -11.1297 6.33474
rfingers 7.12502
rthumb 14.8955 -23.1097
lclavicle -1.59028e-015 -8.5875e-014
lhumerus -23.3872 1.69633 47.352
lradius 31.819
lwrist 4.85317
lhand 3.04286 25.5675
lfingers 7.12502
lthumb 28.5015 53.4158
rfemur 199.45 -44.9662 -241.017
rtibia 28.0357
rfoot 50.3728 -23.8868
rtoes 60.8572
lfemur -18.1337 -31.5001 19.492
ltibia 26.3381
lfoot -88.7563 -28.4289
ltoes 54.5886
385
root 3.74239 18.801 25.5231 107.718 -59.0454 -92.6302
lowerback 7.66558 1.14786 5.67557
upperback -5.99083 2.47063 3.78868
thorax -10.7036 0.870321 0.499759
lowerneck -1.34006 -16.529 -13.9512
upperneck 19.2181 -28.2084 21.0867
head 11.7017 -13.3379 5.69081
rclavicle -8.74653e-015 2.54444e-014
rhumerus -24.4257 3.36794 -59.2804
rradius 32.2704
rwrist -32.452
rhand -10.09 6.19332
rfingers 7.12502
rthumb 15.897 -23.1742
lclavicle -8.74653e-015 2.54444e-014
lhumerus -24.3879 1.4067 50.2044
lradius 31.9234
lwrist 5.91712
lhand 3.75526 25.677
lfingers 7.12502
lthumb 29.182 53.4093
rfemur 198.882 -41.8179 -237.388
rtibia 28.4224
rfoot 53.9793 -20.8537
rtoes 60.6562
lfemur -18.6351 -30.7397 19.6027
ltibia 26.7496
lfoot -88.3097 -28.0045
ltoes 54.4571
